<svg xmlns="http://www.w3.org/2000/svg" width="70" height="50" viewBox="0 0 18.5 13.2"><path d="M11.8 11.6V9.7l.1-.1v-.2l.1-.1V9h.1v-.2h.1v-.2h.1v-.1l.1-.1v-.1l.1-.1v-.1h.1V8h.1V8l.1-.1v-.1h.1v-.1h.1v-.1h.1v-.1l.1-.1v-.1h.1v-.1h.1V7h.1V7h.1v-.1h.1v-.1H8.4l-2 4.6H5.2l2.5-4.7-2 .1-2 4.6h-1l2.5-4.7-2 .1-2 4.6h-1l2.4-4.7-2 .1v-.7l2 .1L.2 1.6h1l2 4.5 2 .1-2.6-4.6h1.1l2 4.5 2 .1-2.5-4.6h1L8.4 6l5.5.1h-.1V6h-.1V6h-.1v-.1h-.1v-.1h-.1v-.1h-.1v-.1l-.1-.1-.1-.1v-.1h-.1v-.1h-.1V5h-.1V5l-.1-.1v-.1h-.1v-.1l-.1-.1v-.1h-.1v-.1l-.1-.1V4H12v-.2H12V3.5h-.1V3.2h-.1V1.6l.1.1V2h.1V2l.1.1v.1h.1v.1l.1.1v.1h.1v.1l.1.1v.1h.1V3h.1V3h.1v.1l.1.1v.1h.2v.1l.1.1v.1h.1v.1h.1v.1h.1l.1.1.1.1v.1h.1l.1.1h.1v.1h.1v.1h.1v.1h.1v.1h.2v.1h.1v.1h.1V5h.2V5h.2v.1h.1v.1h.2v.1h.1l.1.1h.1v.1h.2l.1.1h.2v.1h.1l.1.1h.2V6h.2l.1.1h.2l.1.1h.2l.1.1h.2l.1.1h.4v.1h.1v.2h-.1l-.1.1H17.7v.1H17.4V7h-.2l-.1.1H17v.1h-.2v.1h-.2v.1h-.2l-.1.1H16v.1H16v.1h-.2v.1h-.2v.1h-.2V8h-.1l-.1.1-.1.1H15v.1h-.2v.1h-.1l-.1.1-.1.1h-.1v.1h-.1v.1h-.1l-.1.1H14V9h-.1l-.1.1h-.1v.1h-.1v.1h-.1v.1h-.1v.1l-.1.1h-.1v.1H13v.2H13v.1h-.1v.1h-.1v.1l-.1.1v.1h-.1v.1h-.1v.1l-.1.1v.1h-.1v.1l-.1.1v.1H12v.2H12v.1l-.1.1v.1z"/></svg>