<?xml version="1.0" encoding="UTF-8" standalone="no"?>
<!-- Created with Inkscape (http://www.inkscape.org/) -->

<svg
   xmlns:dc="http://purl.org/dc/elements/1.1/"
   xmlns:cc="http://creativecommons.org/ns#"
   xmlns:rdf="http://www.w3.org/1999/02/22-rdf-syntax-ns#"
   xmlns:svg="http://www.w3.org/2000/svg"
   xmlns="http://www.w3.org/2000/svg"
   xmlns:sodipodi="http://sodipodi.sourceforge.net/DTD/sodipodi-0.dtd"
   xmlns:inkscape="http://www.inkscape.org/namespaces/inkscape"
   width="512"
   height="800"
   viewBox="0 0 135.46666 211.66667"
   version="1.1"
   id="svg8"
   inkscape:version="0.92.3 (2405546, 2018-03-11)"
   sodipodi:docname="time-icon2.svg">
  <defs
     id="defs2">
    <clipPath
       clipPathUnits="userSpaceOnUse"
       id="clipPath1012">
      <rect
         style="fill:none;fill-opacity:1;stroke:#000000;stroke-width:3.26578355;stroke-linecap:round;stroke-linejoin:round;stroke-miterlimit:4;stroke-dasharray:none;stroke-opacity:1"
         id="rect1014"
         width="104.94051"
         height="104.94051"
         x="-172.60832"
         y="178.78763"
         ry="18.474062" />
    </clipPath>
    <clipPath
       clipPathUnits="userSpaceOnUse"
       id="clipPath1031">
      <rect
         style="fill:none;fill-opacity:1;stroke:#000000;stroke-width:3.96875;stroke-linecap:round;stroke-linejoin:round;stroke-miterlimit:4;stroke-dasharray:none;stroke-opacity:1"
         id="rect1033"
         width="127.52925"
         height="127.52917"
         x="-128.86424"
         y="152.67314"
         ry="22.45064" />
    </clipPath>
  </defs>
  <sodipodi:namedview
     id="base"
     pagecolor="#ffffff"
     bordercolor="#666666"
     borderopacity="1.0"
     inkscape:pageopacity="0.0"
     inkscape:pageshadow="2"
     inkscape:zoom="0.49497475"
     inkscape:cx="-113.56045"
     inkscape:cy="226.41915"
     inkscape:document-units="mm"
     inkscape:current-layer="layer1"
     showgrid="false"
     units="px"
     inkscape:window-width="1920"
     inkscape:window-height="1017"
     inkscape:window-x="-8"
     inkscape:window-y="-8"
     inkscape:window-maximized="1" />
  <metadata
     id="metadata5">
    <rdf:RDF>
      <cc:Work
         rdf:about="">
        <dc:format>image/svg+xml</dc:format>
        <dc:type
           rdf:resource="http://purl.org/dc/dcmitype/StillImage" />
        <dc:title></dc:title>
      </cc:Work>
    </rdf:RDF>
  </metadata>
  <g
     inkscape:label="Layer 1"
     inkscape:groupmode="layer"
     id="layer1"
     transform="translate(0,-85.33332)">
    <rect
       style="fill:none;fill-opacity:1;stroke:#000000;stroke-width:3.96875;stroke-linecap:round;stroke-linejoin:round;stroke-miterlimit:4;stroke-dasharray:none;stroke-opacity:1"
       id="rect815-9-6"
       width="127.52926"
       height="127.52917"
       x="4.2359734"
       y="89.182526"
       ry="22.45064" />
    <path
       style="fill:none;stroke:#000000;stroke-width:6.61458349;stroke-linecap:butt;stroke-linejoin:miter;stroke-miterlimit:4;stroke-dasharray:none;stroke-opacity:1"
       d="m 68.000607,191.69389 v 6.6854 h 0.871739 -0.43587"
       id="path924-5"
       inkscape:connector-curvature="0" />
    <path
       style="fill:none;stroke:#000000;stroke-width:6.615;stroke-linecap:butt;stroke-linejoin:miter;stroke-miterlimit:4;stroke-dasharray:none;stroke-opacity:1"
       d="m 29.275754,152.9471 h -6.6854 v 0.87173 -0.43586"
       id="path924-5-3"
       inkscape:connector-curvature="0" />
    <circle
       style="fill:none;fill-opacity:1;stroke:#000000;stroke-width:6.61458349;stroke-linecap:round;stroke-linejoin:round;stroke-miterlimit:4;stroke-dasharray:none;stroke-opacity:1"
       id="path874"
       cx="68.000603"
       cy="152.94711"
       r="45.739487" />
    <path
       style="fill:none;stroke:#000000;stroke-width:6.61458349;stroke-linecap:round;stroke-linejoin:miter;stroke-miterlimit:4;stroke-dasharray:none;stroke-opacity:1"
       d="m 49.73439,119.91559 17.986013,34.40437 27.059075,-10.34033"
       id="path985"
       inkscape:connector-curvature="0"
       sodipodi:nodetypes="ccc" />
    <g
       aria-label="2-4
HOURS"
       style="font-style:normal;font-variant:normal;font-weight:normal;font-stretch:normal;font-size:25.39999962px;line-height:0.80000001;font-family:sans-serif;-inkscape-font-specification:sans-serif;letter-spacing:0px;word-spacing:0px;fill:#000000;fill-opacity:1;stroke:none;stroke-width:0.26458332"
       id="text1050">
      <path
         d="m 36.305794,256.4131 h 16.29668 v 7.01973 H 25.689388 v -7.01973 l 13.518555,-11.93105 q 1.810742,-1.63711 2.678906,-3.1998 0.868164,-1.5627 0.868164,-3.24942 0,-2.60449 -1.761133,-4.19199 -1.736328,-1.5875 -4.638476,-1.5875 -2.232422,0 -4.886524,0.96738 -2.654101,0.94258 -5.680273,2.82774 v -8.13594 q 3.224609,-1.0666 6.374804,-1.61231 3.150196,-0.5705 6.176368,-0.5705 6.647656,0 10.318749,2.92695 3.695899,2.92695 3.695899,8.16074 0,3.02617 -1.562695,5.65547 -1.562696,2.60449 -6.573243,6.99492 z"
         style="font-style:normal;font-variant:normal;font-weight:bold;font-stretch:normal;font-size:50.79999924px;line-height:0.80000001;font-family:sans-serif;-inkscape-font-specification:'sans-serif Bold';text-align:center;text-anchor:middle;stroke-width:0.26458332"
         id="path1550" />
      <path
         d="m 59.746222,245.20139 h 15.577343 v 7.21816 H 59.746222 Z"
         style="font-style:normal;font-variant:normal;font-weight:bold;font-stretch:normal;font-size:50.79999924px;line-height:0.80000001;font-family:sans-serif;-inkscape-font-specification:'sans-serif Bold';text-align:center;text-anchor:middle;stroke-width:0.26458332"
         id="path1552" />
      <path
         d="M 96.82923,234.26252 86.361652,249.76545 H 96.82923 Z m -1.5875,-7.86309 h 10.61641 v 23.36602 h 5.28339 v 6.92051 h -5.28339 v 6.74687 h -9.02891 v -6.74687 H 80.408527 v -8.18555 z"
         style="font-style:normal;font-variant:normal;font-weight:bold;font-stretch:normal;font-size:50.79999924px;line-height:0.80000001;font-family:sans-serif;-inkscape-font-specification:'sans-serif Bold';text-align:center;text-anchor:middle;stroke-width:0.26458332"
         id="path1554" />
      <path
         d="m 19.215365,268.79809 h 4.774902 v 7.05693 h 7.044531 v -7.05693 H 35.8097 v 18.51669 h -4.774902 v -7.85068 h -7.044531 v 7.85068 h -4.774902 z"
         style="font-style:normal;font-variant:normal;font-weight:bold;font-stretch:normal;line-height:0.80000001;font-family:sans-serif;-inkscape-font-specification:'sans-serif Bold';text-align:center;text-anchor:middle;stroke-width:0.26458332"
         id="path1556" />
      <path
         d="m 48.956184,271.92348 q -2.182812,0 -3.38584,1.6123 -1.203027,1.6123 -1.203027,4.53926 0,2.91455 1.203027,4.52685 1.203028,1.61231 3.38584,1.61231 2.195215,0 3.398242,-1.61231 1.203028,-1.6123 1.203028,-4.52685 0,-2.92696 -1.203028,-4.53926 -1.203027,-1.6123 -3.398242,-1.6123 z m 0,-3.46026 q 4.464844,0 6.994922,2.55488 2.530078,2.55489 2.530078,7.05694 0,4.48965 -2.530078,7.04453 -2.530078,2.55488 -6.994922,2.55488 -4.452441,0 -6.994922,-2.55488 -2.530078,-2.55488 -2.530078,-7.04453 0,-4.50205 2.530078,-7.05694 2.542481,-2.55488 6.994922,-2.55488 z"
         style="font-style:normal;font-variant:normal;font-weight:bold;font-stretch:normal;line-height:0.80000001;font-family:sans-serif;-inkscape-font-specification:'sans-serif Bold';text-align:center;text-anchor:middle;stroke-width:0.26458332"
         id="path1558" />
      <path
         d="m 62.077864,268.79809 h 4.774902 v 11.10009 q 0,2.29444 0.744141,3.28662 0.756543,0.97979 2.455664,0.97979 1.711523,0 2.455664,-0.97979 0.756543,-0.99218 0.756543,-3.28662 v -11.10009 h 4.774902 v 11.10009 q 0,3.93155 -1.971972,5.85391 -1.971973,1.92236 -6.015137,1.92236 -4.030762,0 -6.002734,-1.92236 -1.971973,-1.92236 -1.971973,-5.85391 z"
         style="font-style:normal;font-variant:normal;font-weight:bold;font-stretch:normal;line-height:0.80000001;font-family:sans-serif;-inkscape-font-specification:'sans-serif Bold';text-align:center;text-anchor:middle;stroke-width:0.26458332"
         id="path1560" />
      <path
         d="m 89.499447,277.00844 q 1.500683,0 2.145605,-0.55811 0.657324,-0.5581 0.657324,-1.83555 0,-1.26503 -0.657324,-1.81074 -0.644922,-0.5457 -2.145605,-0.5457 h -2.00918 v 4.7501 z m -2.00918,3.29902 v 7.00732 h -4.774902 v -18.51669 h 7.292578 q 3.658691,0 5.357812,1.22783 1.711524,1.22783 1.711524,3.88193 0,1.83555 -0.892969,3.01377 -0.880566,1.17822 -2.666504,1.73633 0.979785,0.22324 1.74873,1.01699 0.781348,0.78135 1.575098,2.38125 l 2.59209,5.25859 h -5.084961 l -2.257226,-4.60127 q -0.682129,-1.38906 -1.389063,-1.89755 -0.694531,-0.5085 -1.860351,-0.5085 z"
         style="font-style:normal;font-variant:normal;font-weight:bold;font-stretch:normal;line-height:0.80000001;font-family:sans-serif;-inkscape-font-specification:'sans-serif Bold';text-align:center;text-anchor:middle;stroke-width:0.26458332"
         id="path1562" />
      <path
         d="m 115.14749,269.381 v 3.91914 q -1.52549,-0.68213 -2.97656,-1.0294 -1.45108,-0.34726 -2.74092,-0.34726 -1.71152,0 -2.53008,0.47128 -0.81855,0.47129 -0.81855,1.46348 0,0.74414 0.5457,1.16582 0.5581,0.40928 2.00918,0.70694 l 2.03398,0.40927 q 3.08819,0.62012 4.39043,1.88516 1.30225,1.26504 1.30225,3.59668 0,3.06338 -1.82315,4.56406 -1.81074,1.48828 -5.54384,1.48828 -1.76114,0 -3.53467,-0.33486 -1.77354,-0.33486 -3.54707,-0.99219 v -4.03076 q 1.77353,0.94258 3.42305,1.42627 1.66191,0.47129 3.1998,0.47129 1.5627,0 2.39365,-0.5209 0.83096,-0.5209 0.83096,-1.48828 0,-0.86817 -0.57051,-1.33945 -0.5581,-0.47129 -2.24482,-0.84336 l -1.84795,-0.40928 q -2.77813,-0.59531 -4.06797,-1.89756 -1.27744,-1.30225 -1.27744,-3.50986 0,-2.76573 1.78594,-4.25401 1.78593,-1.48828 5.13457,-1.48828 1.52548,0 3.13779,0.23565 1.6123,0.22324 3.33623,0.68213 z"
         style="font-style:normal;font-variant:normal;font-weight:bold;font-stretch:normal;line-height:0.80000001;font-family:sans-serif;-inkscape-font-specification:'sans-serif Bold';text-align:center;text-anchor:middle;stroke-width:0.26458332"
         id="path1564" />
    </g>
    <path
       style="fill:none;stroke:#000000;stroke-width:6.61458349;stroke-linecap:butt;stroke-linejoin:miter;stroke-miterlimit:4;stroke-dasharray:none;stroke-opacity:1"
       d="m 67.657739,114.28136 v -6.6854 H 66.786 67.22187"
       id="path924-5-8"
       inkscape:connector-curvature="0" />
    <path
       style="fill:none;stroke:#000000;stroke-width:6.61499977;stroke-linecap:butt;stroke-linejoin:miter;stroke-miterlimit:4;stroke-dasharray:none;stroke-opacity:1"
       d="m 106.58858,152.54081 h 6.6854 v -0.87173 0.43586"
       id="path924-5-3-0"
       inkscape:connector-curvature="0" />
  </g>
</svg>
